<svg width="96" height="96" viewBox="0 0 96 96" fill="none" xmlns="http://www.w3.org/2000/svg">
<path d="M55.6399 40C59.5598 40.08 63.1198 41.72 65.6798 44.28C68.3198 46.96 69.9598 50.6 69.9598 54.64C69.9598 62.72 63.3998 69.28 55.2799 69.28H31.7599" stroke="#FF8F0D" stroke-width="4" stroke-linecap="round" stroke-linejoin="round"/>
<path d="M70.0001 83.9998H26.0001" stroke="#FF8F0D" stroke-width="4" stroke-linecap="round" stroke-linejoin="round"/>
<path d="M54.0402 22.2005C50.2002 20.8805 46.0402 22.9205 44.7202 26.7605L37.4402 47.9204C36.1202 51.7604 38.1602 55.9204 42.0002 57.2404C45.8402 58.5604 50.0002 56.5204 51.3202 52.6804L58.6002 31.5205C59.9202 27.6805 57.8802 23.5205 54.0402 22.2005Z" stroke="#FF8F0D" stroke-width="4" stroke-linecap="round" stroke-linejoin="round"/>
<path d="M54.04 22.1997L57.56 11.9998" stroke="#FF8F0D" stroke-width="4" stroke-linecap="round" stroke-linejoin="round"/>
<path d="M57.5601 69.28L62.6001 84" stroke="#FF8F0D" stroke-width="4" stroke-linecap="round" stroke-linejoin="round"/>
</svg>
