<svg width="121" height="36" viewBox="0 0 121 36" fill="none" xmlns="http://www.w3.org/2000/svg">
<path d="M2.68385 31.8926L3.82385 29.4326L0.943853 23.4926H2.02385L4.30385 28.2326H4.36385L6.52385 23.4926H7.60385L3.76385 31.8926H2.68385ZM8.08573 31.8926V25.6526H13.0657V31.8926H12.1657V26.4926H8.98573V31.8926H8.08573ZM16.542 31.1726C17.126 31.1726 17.59 31.0086 17.934 30.6806C18.286 30.3446 18.462 29.9286 18.462 29.4326V29.0126H16.722C16.25 29.0126 15.89 29.1086 15.642 29.3006C15.402 29.4926 15.282 29.7566 15.282 30.0926C15.282 30.4206 15.394 30.6846 15.618 30.8846C15.842 31.0766 16.15 31.1726 16.542 31.1726ZM16.542 32.0126C15.894 32.0126 15.37 31.8326 14.97 31.4726C14.578 31.1046 14.382 30.6446 14.382 30.0926C14.382 29.5326 14.59 29.0726 15.006 28.7126C15.422 28.3526 15.994 28.1726 16.722 28.1726H18.462V27.7526C18.462 27.3366 18.322 27.0046 18.042 26.7566C17.77 26.5006 17.41 26.3726 16.962 26.3726C16.202 26.3726 15.722 26.6726 15.522 27.2726H14.562C14.706 26.7126 14.99 26.2846 15.414 25.9886C15.838 25.6846 16.354 25.5326 16.962 25.5326C17.706 25.5326 18.29 25.7366 18.714 26.1446C19.146 26.5446 19.362 27.0806 19.362 27.7526V31.8926H18.642L18.522 31.0526H18.462C18.326 31.2926 18.082 31.5126 17.73 31.7126C17.378 31.9126 16.982 32.0126 16.542 32.0126ZM20.9764 31.8926V25.6526H21.8764V28.5926L24.8164 25.6526H25.9564L22.8964 28.7126L26.1364 31.8926H24.9964L21.8764 28.8326V31.8926H20.9764ZM31.41 31.1606C30.882 31.7286 30.186 32.0126 29.322 32.0126C28.458 32.0126 27.762 31.7286 27.234 31.1606C26.706 30.5926 26.442 29.7966 26.442 28.7726C26.442 27.7486 26.706 26.9526 27.234 26.3846C27.762 25.8166 28.458 25.5326 29.322 25.5326C30.186 25.5326 30.882 25.8166 31.41 26.3846C31.938 26.9526 32.202 27.7486 32.202 28.7726C32.202 29.7966 31.938 30.5926 31.41 31.1606ZM27.882 30.5486C28.25 30.9646 28.73 31.1726 29.322 31.1726C29.914 31.1726 30.39 30.9646 30.75 30.5486C31.118 30.1246 31.302 29.5326 31.302 28.7726C31.302 28.0126 31.118 27.4246 30.75 27.0086C30.39 26.5846 29.914 26.3726 29.322 26.3726C28.73 26.3726 28.25 26.5846 27.882 27.0086C27.522 27.4246 27.342 28.0126 27.342 28.7726C27.342 29.5326 27.522 30.1246 27.882 30.5486ZM34.4857 31.0526H36.4657C36.7697 31.0526 37.0137 30.9686 37.1977 30.8006C37.3897 30.6246 37.4857 30.3886 37.4857 30.0926C37.4857 29.7966 37.3897 29.5646 37.1977 29.3966C37.0137 29.2206 36.7697 29.1326 36.4657 29.1326H34.4857V31.0526ZM33.5857 31.8926V25.6526H36.4657C37.0097 25.6526 37.4457 25.8086 37.7737 26.1206C38.1017 26.4326 38.2657 26.8566 38.2657 27.3926C38.2657 28.0086 38.0057 28.4486 37.4857 28.7126C37.7577 28.8326 37.9737 29.0206 38.1337 29.2766C38.3017 29.5246 38.3857 29.7966 38.3857 30.0926C38.3857 30.6606 38.2137 31.1046 37.8697 31.4246C37.5337 31.7366 37.0657 31.8926 36.4657 31.8926H33.5857ZM34.4857 28.2926H36.4657C36.7617 28.2926 36.9937 28.2126 37.1617 28.0526C37.3377 27.8846 37.4257 27.6646 37.4257 27.3926C37.4257 27.1206 37.3377 26.9046 37.1617 26.7446C36.9937 26.5766 36.7617 26.4926 36.4657 26.4926H34.4857V28.2926ZM39.7615 31.8926V25.6526H40.6615V28.5926L43.6015 25.6526H44.7415L41.6815 28.7126L44.9215 31.8926H43.7815L40.6615 28.8326V31.8926H39.7615ZM47.3271 31.1726C47.9111 31.1726 48.3751 31.0086 48.7191 30.6806C49.0711 30.3446 49.2471 29.9286 49.2471 29.4326V29.0126H47.5071C47.0351 29.0126 46.6751 29.1086 46.4271 29.3006C46.1871 29.4926 46.0671 29.7566 46.0671 30.0926C46.0671 30.4206 46.1791 30.6846 46.4031 30.8846C46.6271 31.0766 46.9351 31.1726 47.3271 31.1726ZM47.3271 32.0126C46.6791 32.0126 46.1551 31.8326 45.7551 31.4726C45.3631 31.1046 45.1671 30.6446 45.1671 30.0926C45.1671 29.5326 45.3751 29.0726 45.7911 28.7126C46.2071 28.3526 46.7791 28.1726 47.5071 28.1726H49.2471V27.7526C49.2471 27.3366 49.1071 27.0046 48.8271 26.7566C48.5551 26.5006 48.1951 26.3726 47.7471 26.3726C46.9871 26.3726 46.5071 26.6726 46.3071 27.2726H45.3471C45.4911 26.7126 45.7751 26.2846 46.1991 25.9886C46.6231 25.6846 47.1391 25.5326 47.7471 25.5326C48.4911 25.5326 49.0751 25.7366 49.4991 26.1446C49.9311 26.5446 50.1471 27.0806 50.1471 27.7526V31.8926H49.4271L49.3071 31.0526H49.2471C49.1111 31.2926 48.8671 31.5126 48.5151 31.7126C48.1631 31.9126 47.7671 32.0126 47.3271 32.0126ZM54.3982 31.8926V25.6526H55.2982V30.7646H55.3582L58.3582 25.6526H59.5582V31.8926H58.6582V26.7806H58.5982L55.5982 31.8926H54.3982ZM63.8787 31.8926V25.6526H65.1987L67.1787 30.6326H67.2387L69.2187 25.6526H70.5387V31.8926H69.6387V26.9726H69.5787L67.5987 31.8926H66.8187L64.8387 26.9726H64.7787V31.8926H63.8787ZM74.0224 31.1726C74.6064 31.1726 75.0704 31.0086 75.4144 30.6806C75.7664 30.3446 75.9424 29.9286 75.9424 29.4326V29.0126H74.2024C73.7304 29.0126 73.3704 29.1086 73.1224 29.3006C72.8824 29.4926 72.7624 29.7566 72.7624 30.0926C72.7624 30.4206 72.8744 30.6846 73.0984 30.8846C73.3224 31.0766 73.6304 31.1726 74.0224 31.1726ZM74.0224 32.0126C73.3744 32.0126 72.8504 31.8326 72.4504 31.4726C72.0584 31.1046 71.8624 30.6446 71.8624 30.0926C71.8624 29.5326 72.0704 29.0726 72.4864 28.7126C72.9024 28.3526 73.4744 28.1726 74.2024 28.1726H75.9424V27.7526C75.9424 27.3366 75.8024 27.0046 75.5224 26.7566C75.2504 26.5006 74.8904 26.3726 74.4424 26.3726C73.6824 26.3726 73.2024 26.6726 73.0024 27.2726H72.0424C72.1864 26.7126 72.4704 26.2846 72.8944 25.9886C73.3184 25.6846 73.8344 25.5326 74.4424 25.5326C75.1864 25.5326 75.7704 25.7366 76.1944 26.1446C76.6264 26.5446 76.8424 27.0806 76.8424 27.7526V31.8926H76.1224L76.0024 31.0526H75.9424C75.8064 31.2926 75.5624 31.5126 75.2104 31.7126C74.8584 31.9126 74.4624 32.0126 74.0224 32.0126ZM78.4568 34.2926V25.6526H79.1768L79.2968 26.4926H79.3568C79.8048 25.8526 80.4848 25.5326 81.3968 25.5326C82.1968 25.5326 82.8448 25.8166 83.3408 26.3846C83.8448 26.9526 84.0968 27.7486 84.0968 28.7726C84.0968 29.7966 83.8448 30.5926 83.3408 31.1606C82.8448 31.7286 82.1968 32.0126 81.3968 32.0126C80.5408 32.0126 79.8808 31.7126 79.4168 31.1126H79.3568V34.2926H78.4568ZM79.8728 30.5486C80.2248 30.9646 80.6928 31.1726 81.2768 31.1726C81.8608 31.1726 82.3248 30.9646 82.6688 30.5486C83.0208 30.1326 83.1968 29.5406 83.1968 28.7726C83.1968 28.0046 83.0208 27.4126 82.6688 26.9966C82.3248 26.5806 81.8608 26.3726 81.2768 26.3726C80.6928 26.3726 80.2248 26.5806 79.8728 26.9966C79.5288 27.4126 79.3568 28.0046 79.3568 28.7726C79.3568 29.5406 79.5288 30.1326 79.8728 30.5486ZM85.4764 31.8926V25.6526H86.3764V28.5926L89.3164 25.6526H90.4564L87.3964 28.7126L90.6364 31.8926H89.4964L86.3764 28.8326V31.8926H85.4764ZM93.822 32.0126C92.958 32.0126 92.262 31.7286 91.734 31.1606C91.206 30.5926 90.942 29.7966 90.942 28.7726C90.942 27.7486 91.202 26.9526 91.722 26.3846C92.25 25.8166 92.93 25.5326 93.762 25.5326C94.218 25.5326 94.63 25.6246 94.998 25.8086C95.374 25.9846 95.674 26.2166 95.898 26.5046C96.122 26.7926 96.29 27.1006 96.402 27.4286C96.522 27.7566 96.582 28.0846 96.582 28.4126L96.522 29.0126H91.842C91.874 29.7086 92.07 30.2446 92.43 30.6206C92.798 30.9886 93.262 31.1726 93.822 31.1726C94.542 31.1726 95.082 30.8726 95.442 30.2726H96.402C96.194 30.8326 95.862 31.2646 95.406 31.5686C94.958 31.8646 94.43 32.0126 93.822 32.0126ZM91.842 28.2326H95.682C95.626 27.6486 95.422 27.1926 95.07 26.8646C94.718 26.5366 94.282 26.3726 93.762 26.3726C93.242 26.3726 92.806 26.5366 92.454 26.8646C92.102 27.1926 91.898 27.6486 91.842 28.2326ZM99.1624 31.8926V26.4926H97.0624V25.6526H102.222V26.4926H100.062V31.8926H99.1624ZM103.242 31.8926V25.6526H104.142V30.7646H104.202L107.202 25.6526H108.402V31.8926H107.502V26.7806H107.442L104.442 31.8926H103.242ZM110.086 31.8926V25.6526H110.986V28.3526H114.226V25.6526H115.126V31.8926H114.226V29.1926H110.986V31.8926H110.086ZM116.801 31.8926V25.6526H120.761V26.4926H117.701V31.8926H116.801Z" fill="#1A1A18" fill-opacity="0.4"/>
<path fill-rule="evenodd" clip-rule="evenodd" d="M3.98504 0.142117L-8.70148e-05 12.3371L7.28165 3.51115H11.6042L7.75953 7.90009L12.0431 13.2897H7.44352L3.98504 8.90077V13.2897H-0.00012207V0H3.98504V0.142117ZM14.3735 12.6402C15.4035 13.2488 16.7904 13.5531 18.5342 13.5531H19.096C20.8984 13.5531 22.3146 13.2488 23.3445 12.6402C24.1989 12.1486 24.7958 11.4815 25.1352 10.6388C25.3693 10.0185 25.4863 9.33382 25.4863 8.58477V8.30388C25.4863 7.55483 25.3693 6.8643 25.1352 6.2323C24.7841 5.35451 24.1931 4.66983 23.3621 4.17827C22.3204 3.55797 20.9043 3.24782 19.1136 3.24782H18.5167C16.7728 3.24782 15.3859 3.55797 14.356 4.17827C13.525 4.68154 12.9164 5.36621 12.5302 6.2323C12.261 6.8526 12.1264 7.54898 12.1264 8.32143V8.56721C12.1264 9.35137 12.261 10.0419 12.5302 10.6388C12.9164 11.4932 13.5308 12.1603 14.3735 12.6402ZM20.8516 9.93656C20.4186 10.5101 19.7631 10.7968 18.8854 10.7968H18.7274C17.8027 10.7968 17.1415 10.5159 16.7436 9.95412C16.4275 9.53278 16.2695 9.00026 16.2695 8.35654C16.2695 7.71283 16.4275 7.18616 16.7436 6.77653C17.1415 6.23815 17.8027 5.96896 18.7274 5.96896H18.8854C19.7748 5.96896 20.4303 6.23815 20.8516 6.77653C21.1793 7.19786 21.3432 7.72454 21.3432 8.35654C21.3432 8.98855 21.1793 9.51523 20.8516 9.93656ZM26.986 3.51115V13.2897H35.957C38.3563 13.2897 39.5559 12.3768 39.5559 10.551V10.4808C39.5559 9.79027 39.3277 9.23433 38.8712 8.81299C38.4382 8.41506 37.9115 8.18099 37.2912 8.11076C37.8998 8.00543 38.3738 7.77135 38.7132 7.40853C39.0643 7.04571 39.2399 6.56 39.2399 5.9514V5.86363C39.2399 5.10288 38.918 4.52354 38.2743 4.12561C37.6306 3.71597 36.7411 3.51115 35.6059 3.51115H26.986ZM35.1318 6.49563C35.1318 7.08083 34.7339 7.37342 33.9381 7.37342H30.9711V5.60029H33.9381C34.7339 5.60029 35.1318 5.88118 35.1318 6.44297V6.49563ZM35.4478 10.2877C35.4478 10.8963 34.9914 11.2006 34.0785 11.2006H30.9711V9.25189H34.0785C34.9914 9.25189 35.4478 9.56204 35.4478 10.1823V10.2877ZM47.3663 12.9035C47.7759 12.6811 48.1563 12.3827 48.5074 12.0081C48.6128 12.3593 48.7883 12.6402 49.0341 12.8508C49.3501 13.1434 49.7246 13.2897 50.1577 13.2897H53.3879V10.4281H52.9315C52.674 10.4281 52.5043 10.3813 52.4224 10.2877C52.3404 10.1823 52.2995 10.0009 52.2995 9.74345V6.61852C52.2995 6.17378 52.2409 5.77 52.1239 5.40718C52.0186 5.04436 51.802 4.71665 51.4743 4.42405C50.6083 3.6633 49.0516 3.28293 46.8045 3.28293H46.2427C44.7329 3.28293 43.5099 3.48189 42.5736 3.87982C41.8713 4.19583 41.3622 4.64643 41.0462 5.23162C40.8355 5.62955 40.7302 6.086 40.7302 6.60097V6.61852H44.7329C44.7329 6.38445 44.8266 6.17963 45.0138 6.00407C45.283 5.75829 45.7863 5.6354 46.5236 5.6354H46.5763C47.3019 5.6354 47.811 5.72318 48.1036 5.89874C48.3026 6.01578 48.4021 6.21474 48.4021 6.49563V6.51319C48.4021 6.68875 48.3494 6.82334 48.2441 6.91697C48.1387 7.0106 47.9515 7.06912 47.6823 7.09253L44.9612 7.3032C43.2875 7.44364 42.1171 7.7538 41.45 8.23365C40.8063 8.6784 40.4844 9.36308 40.4844 10.2877V10.3579C40.4844 10.7909 40.5664 11.2006 40.7302 11.5868C40.8941 11.9613 41.134 12.289 41.45 12.5699C42.1405 13.1785 43.1354 13.4828 44.4345 13.4828H44.7329C45.7629 13.4828 46.6407 13.2897 47.3663 12.9035ZM47.8579 10.5335C47.4014 10.9665 46.7635 11.183 45.9443 11.183C45.441 11.183 45.0665 11.1011 44.8207 10.9372C44.5749 10.7617 44.452 10.5276 44.452 10.235V10.1999C44.452 9.8956 44.5925 9.66738 44.8734 9.51523C45.1309 9.36308 45.6517 9.22263 46.4358 9.09389C47.337 8.94174 47.9924 8.81299 48.4021 8.70766V9.32211C48.4021 9.52108 48.3553 9.73175 48.2616 9.95412C48.1797 10.1648 48.0451 10.3579 47.8579 10.5335ZM59.6278 6.26741H63.016V13.2897H67.0012V3.51115H55.8884C55.8884 5.26673 55.8767 6.7063 55.8533 7.82987C55.8416 8.47358 55.783 9.03537 55.6777 9.51523C55.5841 9.91316 55.4378 10.1882 55.2388 10.3403C55.0399 10.4925 54.7707 10.5686 54.4313 10.5686H54.2206V13.2897H55.6075C56.7896 13.2897 57.6791 13.0498 58.276 12.5699C58.51 12.3827 58.6915 12.1778 58.8202 11.9555C58.9489 11.7331 59.0777 11.4522 59.2064 11.1128C59.3703 10.6798 59.4815 10.0887 59.54 9.33967C59.5985 8.57892 59.6278 7.55483 59.6278 6.26741ZM73.3361 3.51115H69.3509V13.2897H76.6014C78.2166 13.2897 79.4104 12.9679 80.1828 12.3241C80.885 11.739 81.2362 10.8963 81.2362 9.79612V9.58545C81.2362 8.55551 80.885 7.74209 80.1828 7.1452C79.3987 6.48978 78.2049 6.16207 76.6014 6.16207H73.3361V3.51115ZM76.6892 10.551C76.4551 10.6915 76.145 10.7617 75.7588 10.7617H73.3361V8.67255H75.7588C76.1333 8.67255 76.4434 8.73692 76.6892 8.86566C76.9818 9.04122 77.1281 9.31041 77.1281 9.67323V9.72589C77.1281 10.1238 76.9818 10.3989 76.6892 10.551ZM93.9652 13.2897V3.51115H89.98V7.19786C89.4299 7.27979 88.8389 7.32075 88.2069 7.32075C87.7505 7.32075 87.3759 7.29735 87.0833 7.25053C86.7907 7.19201 86.5625 7.09253 86.3987 6.95208C86.2114 6.81164 86.0768 6.61267 85.9949 6.35519C85.9129 6.086 85.872 5.74074 85.872 5.3194V3.51115H81.8868V5.7934C81.8868 6.61267 81.9805 7.29735 82.1677 7.84743C82.355 8.39751 82.6593 8.84225 83.0806 9.18167C83.4902 9.52108 84.0345 9.77271 84.7133 9.93656C85.4038 10.0887 86.2641 10.1648 87.294 10.1648C88.0782 10.1648 88.9735 10.1063 89.98 9.98923V13.2897H93.9652ZM98.8569 13.9744H96.6449V16.6253H100.314C101.168 16.6253 101.859 16.4263 102.386 16.0284C102.912 15.6422 103.351 15.0277 103.702 14.1851L108.091 3.51115H104.053L101.683 10.1999L99.173 3.51115H94.784L99.0149 12.763C99.0852 12.8801 99.1671 13.0556 99.2607 13.2897C99.2958 13.4185 99.3134 13.5296 99.3134 13.6233C99.3134 13.8574 99.1612 13.9744 98.8569 13.9744ZM112.942 8.88322L116.4 13.2897H121L116.699 7.90009L120.561 3.51115H116.102L112.942 7.3032V3.51115H108.957V13.2897H112.942V8.88322Z" fill="#1A1A18" fill-opacity="0.3"/>
</svg>
